<svg width="25" height="24" viewBox="0 0 25 24" fill="none" xmlns="http://www.w3.org/2000/svg">
<mask id="mask0_102_1150" style="mask-type:alpha" maskUnits="userSpaceOnUse" x="0" y="0" width="25" height="24">
<rect x="0.5" width="24" height="24" fill="#D9D9D9"/>
</mask>
<g mask="url(#mask0_102_1150)">
<path d="M6.5 21C5.4 21 4.45833 20.6083 3.675 19.825C2.89167 19.0417 2.5 18.1 2.5 17C2.5 15.9 2.89167 14.9583 3.675 14.175C4.45833 13.3917 5.4 13 6.5 13C7.6 13 8.54167 13.3917 9.325 14.175C10.1083 14.9583 10.5 15.9 10.5 17C10.5 18.1 10.1083 19.0417 9.325 19.825C8.54167 20.6083 7.6 21 6.5 21ZM18.5 21C17.4 21 16.4583 20.6083 15.675 19.825C14.8917 19.0417 14.5 18.1 14.5 17C14.5 15.9 14.8917 14.9583 15.675 14.175C16.4583 13.3917 17.4 13 18.5 13C19.6 13 20.5417 13.3917 21.325 14.175C22.1083 14.9583 22.5 15.9 22.5 17C22.5 18.1 22.1083 19.0417 21.325 19.825C20.5417 20.6083 19.6 21 18.5 21ZM6.5 19C7.05 19 7.52083 18.8042 7.9125 18.4125C8.30417 18.0208 8.5 17.55 8.5 17C8.5 16.45 8.30417 15.9792 7.9125 15.5875C7.52083 15.1958 7.05 15 6.5 15C5.95 15 5.47917 15.1958 5.0875 15.5875C4.69583 15.9792 4.5 16.45 4.5 17C4.5 17.55 4.69583 18.0208 5.0875 18.4125C5.47917 18.8042 5.95 19 6.5 19ZM18.5 19C19.05 19 19.5208 18.8042 19.9125 18.4125C20.3042 18.0208 20.5 17.55 20.5 17C20.5 16.45 20.3042 15.9792 19.9125 15.5875C19.5208 15.1958 19.05 15 18.5 15C17.95 15 17.4792 15.1958 17.0875 15.5875C16.6958 15.9792 16.5 16.45 16.5 17C16.5 17.55 16.6958 18.0208 17.0875 18.4125C17.4792 18.8042 17.95 19 18.5 19ZM12.5 11C11.4 11 10.4583 10.6083 9.675 9.825C8.89167 9.04167 8.5 8.1 8.5 7C8.5 5.9 8.89167 4.95833 9.675 4.175C10.4583 3.39167 11.4 3 12.5 3C13.6 3 14.5417 3.39167 15.325 4.175C16.1083 4.95833 16.5 5.9 16.5 7C16.5 8.1 16.1083 9.04167 15.325 9.825C14.5417 10.6083 13.6 11 12.5 11ZM12.5 9C13.05 9 13.5208 8.80417 13.9125 8.4125C14.3042 8.02083 14.5 7.55 14.5 7C14.5 6.45 14.3042 5.97917 13.9125 5.5875C13.5208 5.19583 13.05 5 12.5 5C11.95 5 11.4792 5.19583 11.0875 5.5875C10.6958 5.97917 10.5 6.45 10.5 7C10.5 7.55 10.6958 8.02083 11.0875 8.4125C11.4792 8.80417 11.95 9 12.5 9Z" fill="black"/>
<path d="M6.5 21C5.4 21 4.45833 20.6083 3.675 19.825C2.89167 19.0417 2.5 18.1 2.5 17C2.5 15.9 2.89167 14.9583 3.675 14.175C4.45833 13.3917 5.4 13 6.5 13C7.6 13 8.54167 13.3917 9.325 14.175C10.1083 14.9583 10.5 15.9 10.5 17C10.5 18.1 10.1083 19.0417 9.325 19.825C8.54167 20.6083 7.6 21 6.5 21ZM18.5 21C17.4 21 16.4583 20.6083 15.675 19.825C14.8917 19.0417 14.5 18.1 14.5 17C14.5 15.9 14.8917 14.9583 15.675 14.175C16.4583 13.3917 17.4 13 18.5 13C19.6 13 20.5417 13.3917 21.325 14.175C22.1083 14.9583 22.5 15.9 22.5 17C22.5 18.1 22.1083 19.0417 21.325 19.825C20.5417 20.6083 19.6 21 18.5 21ZM6.5 19C7.05 19 7.52083 18.8042 7.9125 18.4125C8.30417 18.0208 8.5 17.55 8.5 17C8.5 16.45 8.30417 15.9792 7.9125 15.5875C7.52083 15.1958 7.05 15 6.5 15C5.95 15 5.47917 15.1958 5.0875 15.5875C4.69583 15.9792 4.5 16.45 4.5 17C4.5 17.55 4.69583 18.0208 5.0875 18.4125C5.47917 18.8042 5.95 19 6.5 19ZM18.5 19C19.05 19 19.5208 18.8042 19.9125 18.4125C20.3042 18.0208 20.5 17.55 20.5 17C20.5 16.45 20.3042 15.9792 19.9125 15.5875C19.5208 15.1958 19.05 15 18.5 15C17.95 15 17.4792 15.1958 17.0875 15.5875C16.6958 15.9792 16.5 16.45 16.5 17C16.5 17.55 16.6958 18.0208 17.0875 18.4125C17.4792 18.8042 17.95 19 18.5 19ZM12.5 11C11.4 11 10.4583 10.6083 9.675 9.825C8.89167 9.04167 8.5 8.1 8.5 7C8.5 5.9 8.89167 4.95833 9.675 4.175C10.4583 3.39167 11.4 3 12.5 3C13.6 3 14.5417 3.39167 15.325 4.175C16.1083 4.95833 16.5 5.9 16.5 7C16.5 8.1 16.1083 9.04167 15.325 9.825C14.5417 10.6083 13.6 11 12.5 11ZM12.5 9C13.05 9 13.5208 8.80417 13.9125 8.4125C14.3042 8.02083 14.5 7.55 14.5 7C14.5 6.45 14.3042 5.97917 13.9125 5.5875C13.5208 5.19583 13.05 5 12.5 5C11.95 5 11.4792 5.19583 11.0875 5.5875C10.6958 5.97917 10.5 6.45 10.5 7C10.5 7.55 10.6958 8.02083 11.0875 8.4125C11.4792 8.80417 11.95 9 12.5 9Z" fill="black"/>
<path d="M6.5 21C5.4 21 4.45833 20.6083 3.675 19.825C2.89167 19.0417 2.5 18.1 2.5 17C2.5 15.9 2.89167 14.9583 3.675 14.175C4.45833 13.3917 5.4 13 6.5 13C7.6 13 8.54167 13.3917 9.325 14.175C10.1083 14.9583 10.5 15.9 10.5 17C10.5 18.1 10.1083 19.0417 9.325 19.825C8.54167 20.6083 7.6 21 6.5 21ZM18.5 21C17.4 21 16.4583 20.6083 15.675 19.825C14.8917 19.0417 14.5 18.1 14.5 17C14.5 15.9 14.8917 14.9583 15.675 14.175C16.4583 13.3917 17.4 13 18.5 13C19.6 13 20.5417 13.3917 21.325 14.175C22.1083 14.9583 22.5 15.9 22.5 17C22.5 18.1 22.1083 19.0417 21.325 19.825C20.5417 20.6083 19.6 21 18.5 21ZM6.5 19C7.05 19 7.52083 18.8042 7.9125 18.4125C8.30417 18.0208 8.5 17.55 8.5 17C8.5 16.45 8.30417 15.9792 7.9125 15.5875C7.52083 15.1958 7.05 15 6.5 15C5.95 15 5.47917 15.1958 5.0875 15.5875C4.69583 15.9792 4.5 16.45 4.5 17C4.5 17.55 4.69583 18.0208 5.0875 18.4125C5.47917 18.8042 5.95 19 6.5 19ZM18.5 19C19.05 19 19.5208 18.8042 19.9125 18.4125C20.3042 18.0208 20.5 17.55 20.5 17C20.5 16.45 20.3042 15.9792 19.9125 15.5875C19.5208 15.1958 19.05 15 18.5 15C17.95 15 17.4792 15.1958 17.0875 15.5875C16.6958 15.9792 16.5 16.45 16.5 17C16.5 17.55 16.6958 18.0208 17.0875 18.4125C17.4792 18.8042 17.95 19 18.5 19ZM12.5 11C11.4 11 10.4583 10.6083 9.675 9.825C8.89167 9.04167 8.5 8.1 8.5 7C8.5 5.9 8.89167 4.95833 9.675 4.175C10.4583 3.39167 11.4 3 12.5 3C13.6 3 14.5417 3.39167 15.325 4.175C16.1083 4.95833 16.5 5.9 16.5 7C16.5 8.1 16.1083 9.04167 15.325 9.825C14.5417 10.6083 13.6 11 12.5 11ZM12.5 9C13.05 9 13.5208 8.80417 13.9125 8.4125C14.3042 8.02083 14.5 7.55 14.5 7C14.5 6.45 14.3042 5.97917 13.9125 5.5875C13.5208 5.19583 13.05 5 12.5 5C11.95 5 11.4792 5.19583 11.0875 5.5875C10.6958 5.97917 10.5 6.45 10.5 7C10.5 7.55 10.6958 8.02083 11.0875 8.4125C11.4792 8.80417 11.95 9 12.5 9Z" fill="white"/>
</g>
</svg>
