<svg width="25" height="24" viewBox="0 0 25 24" fill="none" xmlns="http://www.w3.org/2000/svg">
<mask id="mask0_102_1141" style="mask-type:alpha" maskUnits="userSpaceOnUse" x="0" y="0" width="25" height="24">
<rect x="0.5" width="24" height="24" fill="#D9D9D9"/>
</mask>
<g mask="url(#mask0_102_1141)">
<path d="M12.5 18C14.1667 18 15.575 17.4167 16.725 16.25C17.875 15.0833 18.4667 13.6667 18.5 12V6H12.5C10.8333 6.03333 9.41667 6.625 8.25 7.775C7.08333 8.925 6.5 10.3333 6.5 12C6.5 13.6667 7.08333 15.0833 8.25 16.25C9.41667 17.4167 10.8333 18 12.5 18ZM11.325 16.325L15.925 12.225C16.075 12.0917 16.1167 11.9333 16.05 11.75C15.9833 11.5667 15.85 11.4583 15.65 11.425L12.05 11.075L14.2 8.1C14.25 8.01667 14.2792 7.9375 14.2875 7.8625C14.2958 7.7875 14.2667 7.71667 14.2 7.65C14.1333 7.56667 14.05 7.52917 13.95 7.5375C13.85 7.54583 13.7583 7.58333 13.675 7.65L9.1 11.75C8.95 11.8833 8.90833 12.0417 8.975 12.225C9.04167 12.4083 9.175 12.5167 9.375 12.55L12.975 12.9L10.8 15.875C10.75 15.9583 10.725 16.0375 10.725 16.1125C10.725 16.1875 10.7583 16.2583 10.825 16.325C10.8917 16.3917 10.9708 16.425 11.0625 16.425C11.1542 16.425 11.2417 16.3917 11.325 16.325ZM12.5 20C11.5667 20 10.6875 19.8542 9.8625 19.5625C9.0375 19.2708 8.28333 18.8583 7.6 18.325L6.225 19.7C6.125 19.8 6.0125 19.875 5.8875 19.925C5.7625 19.975 5.63333 20 5.5 20C5.21667 20 4.97917 19.9042 4.7875 19.7125C4.59583 19.5208 4.5 19.2833 4.5 19C4.5 18.8667 4.525 18.7375 4.575 18.6125C4.625 18.4875 4.7 18.375 4.8 18.275L6.175 16.9C5.64167 16.2167 5.22917 15.4625 4.9375 14.6375C4.64583 13.8125 4.5 12.9333 4.5 12C4.5 9.76667 5.275 7.875 6.825 6.325C8.375 4.775 10.2667 4 12.5 4H20.5V12C20.5 14.2333 19.725 16.125 18.175 17.675C16.625 19.225 14.7333 20 12.5 20Z" fill="black"/>
<path d="M12.5 18C14.1667 18 15.575 17.4167 16.725 16.25C17.875 15.0833 18.4667 13.6667 18.5 12V6H12.5C10.8333 6.03333 9.41667 6.625 8.25 7.775C7.08333 8.925 6.5 10.3333 6.5 12C6.5 13.6667 7.08333 15.0833 8.25 16.25C9.41667 17.4167 10.8333 18 12.5 18ZM11.325 16.325L15.925 12.225C16.075 12.0917 16.1167 11.9333 16.05 11.75C15.9833 11.5667 15.85 11.4583 15.65 11.425L12.05 11.075L14.2 8.1C14.25 8.01667 14.2792 7.9375 14.2875 7.8625C14.2958 7.7875 14.2667 7.71667 14.2 7.65C14.1333 7.56667 14.05 7.52917 13.95 7.5375C13.85 7.54583 13.7583 7.58333 13.675 7.65L9.1 11.75C8.95 11.8833 8.90833 12.0417 8.975 12.225C9.04167 12.4083 9.175 12.5167 9.375 12.55L12.975 12.9L10.8 15.875C10.75 15.9583 10.725 16.0375 10.725 16.1125C10.725 16.1875 10.7583 16.2583 10.825 16.325C10.8917 16.3917 10.9708 16.425 11.0625 16.425C11.1542 16.425 11.2417 16.3917 11.325 16.325ZM12.5 20C11.5667 20 10.6875 19.8542 9.8625 19.5625C9.0375 19.2708 8.28333 18.8583 7.6 18.325L6.225 19.7C6.125 19.8 6.0125 19.875 5.8875 19.925C5.7625 19.975 5.63333 20 5.5 20C5.21667 20 4.97917 19.9042 4.7875 19.7125C4.59583 19.5208 4.5 19.2833 4.5 19C4.5 18.8667 4.525 18.7375 4.575 18.6125C4.625 18.4875 4.7 18.375 4.8 18.275L6.175 16.9C5.64167 16.2167 5.22917 15.4625 4.9375 14.6375C4.64583 13.8125 4.5 12.9333 4.5 12C4.5 9.76667 5.275 7.875 6.825 6.325C8.375 4.775 10.2667 4 12.5 4H20.5V12C20.5 14.2333 19.725 16.125 18.175 17.675C16.625 19.225 14.7333 20 12.5 20Z" fill="black"/>
<path d="M12.5 18C14.1667 18 15.575 17.4167 16.725 16.25C17.875 15.0833 18.4667 13.6667 18.5 12V6H12.5C10.8333 6.03333 9.41667 6.625 8.25 7.775C7.08333 8.925 6.5 10.3333 6.5 12C6.5 13.6667 7.08333 15.0833 8.25 16.25C9.41667 17.4167 10.8333 18 12.5 18ZM11.325 16.325L15.925 12.225C16.075 12.0917 16.1167 11.9333 16.05 11.75C15.9833 11.5667 15.85 11.4583 15.65 11.425L12.05 11.075L14.2 8.1C14.25 8.01667 14.2792 7.9375 14.2875 7.8625C14.2958 7.7875 14.2667 7.71667 14.2 7.65C14.1333 7.56667 14.05 7.52917 13.95 7.5375C13.85 7.54583 13.7583 7.58333 13.675 7.65L9.1 11.75C8.95 11.8833 8.90833 12.0417 8.975 12.225C9.04167 12.4083 9.175 12.5167 9.375 12.55L12.975 12.9L10.8 15.875C10.75 15.9583 10.725 16.0375 10.725 16.1125C10.725 16.1875 10.7583 16.2583 10.825 16.325C10.8917 16.3917 10.9708 16.425 11.0625 16.425C11.1542 16.425 11.2417 16.3917 11.325 16.325ZM12.5 20C11.5667 20 10.6875 19.8542 9.8625 19.5625C9.0375 19.2708 8.28333 18.8583 7.6 18.325L6.225 19.7C6.125 19.8 6.0125 19.875 5.8875 19.925C5.7625 19.975 5.63333 20 5.5 20C5.21667 20 4.97917 19.9042 4.7875 19.7125C4.59583 19.5208 4.5 19.2833 4.5 19C4.5 18.8667 4.525 18.7375 4.575 18.6125C4.625 18.4875 4.7 18.375 4.8 18.275L6.175 16.9C5.64167 16.2167 5.22917 15.4625 4.9375 14.6375C4.64583 13.8125 4.5 12.9333 4.5 12C4.5 9.76667 5.275 7.875 6.825 6.325C8.375 4.775 10.2667 4 12.5 4H20.5V12C20.5 14.2333 19.725 16.125 18.175 17.675C16.625 19.225 14.7333 20 12.5 20Z" fill="white"/>
</g>
</svg>
