<svg width="23" height="22" viewBox="0 0 23 22" fill="none" xmlns="http://www.w3.org/2000/svg">
<path d="M9.1445 20.537C7.93472 20.2444 6.84908 19.5753 6.04403 18.626C5.23898 17.6768 4.75609 16.4965 4.66495 15.2552H5.4445C5.47652 15.2549 5.50783 15.2456 5.53489 15.2285C5.56195 15.2114 5.58368 15.187 5.59762 15.1582C5.61157 15.1293 5.61717 15.0972 5.61381 15.0653C5.61045 15.0335 5.59825 15.0032 5.57859 14.9779L3.1945 11.9461C3.17841 11.9259 3.15804 11.9095 3.13485 11.8981C3.11166 11.8867 3.08624 11.8806 3.06041 11.8802C3.03453 11.8803 3.00902 11.8863 2.9858 11.8977C2.96257 11.9092 2.94224 11.9257 2.92631 11.9461L0.537678 14.9779C0.517388 15.0031 0.504693 15.0336 0.501071 15.0658C0.49745 15.098 0.503052 15.1306 0.517223 15.1597C0.531602 15.1879 0.553356 15.2117 0.58017 15.2285C0.606985 15.2453 0.637855 15.2545 0.669496 15.2552H1.4854C1.59186 16.8271 2.29222 18.2997 3.44443 19.3742C4.59664 20.4488 6.11444 21.0448 7.68995 21.0415C8.18075 21.043 8.66993 20.985 9.14677 20.8688C9.18402 20.86 9.21715 20.8388 9.24071 20.8086C9.26426 20.7785 9.27682 20.7412 9.27631 20.7029C9.27633 20.6644 9.26331 20.6271 9.23937 20.5969C9.21543 20.5668 9.18199 20.5457 9.1445 20.537ZM3.99904 4.81426C4.02457 4.82913 4.05359 4.83697 4.08313 4.83698C4.13007 4.83677 4.17502 4.81798 4.20813 4.78471C5.06675 3.88303 6.18935 3.27706 7.4143 3.05402C8.63926 2.83099 9.90339 3.0024 11.0247 3.54358L10.6338 4.22085C10.6181 4.24844 10.6104 4.27987 10.6116 4.31159C10.6129 4.34331 10.6229 4.37407 10.6406 4.40039C10.6582 4.42738 10.6832 4.44864 10.7127 4.46156C10.7422 4.47448 10.7748 4.4785 10.8065 4.47312L14.6247 3.92539C14.6506 3.92171 14.6752 3.91224 14.6969 3.89767C14.7185 3.88311 14.7366 3.86384 14.7497 3.8413C14.7623 3.81898 14.7697 3.79408 14.7713 3.76849C14.7729 3.74289 14.7686 3.71728 14.7588 3.69358L13.327 0.107213C13.3147 0.0778739 13.2947 0.0524279 13.2691 0.0336082C13.2435 0.0147885 13.2132 0.00330601 13.1815 0.000394317C13.1496 -0.00179484 13.1176 0.00516386 13.0894 0.0204572C13.0613 0.0357506 13.038 0.0587469 13.0224 0.086758L12.6134 0.793576C11.8009 0.397247 10.9118 0.182727 10.008 0.164946C9.10421 0.147165 8.20739 0.326551 7.37997 0.690618C6.55254 1.05468 5.81439 1.59469 5.21689 2.27304C4.61938 2.9514 4.17688 3.75181 3.92018 4.61858C3.90989 4.65532 3.91205 4.69444 3.92632 4.72983C3.94058 4.76523 3.96615 4.79491 3.99904 4.81426ZM21.4854 9.3938C21.2404 8.96828 20.9451 8.57378 20.6059 8.2188C20.5795 8.19116 20.5446 8.1732 20.5068 8.1678C20.469 8.16239 20.4304 8.16987 20.3974 8.18902C20.3643 8.20817 20.3387 8.23788 20.3245 8.27338C20.3104 8.30887 20.3086 8.34809 20.3195 8.38471C20.6709 9.57904 20.6342 10.8541 20.2147 12.0262C19.7953 13.1984 19.0147 14.2072 17.9854 14.9074L17.5945 14.2324C17.579 14.2044 17.5558 14.1815 17.5277 14.1661C17.4996 14.1508 17.4677 14.1438 17.4357 14.146C17.4038 14.1481 17.3731 14.1593 17.3473 14.1783C17.3215 14.1972 17.3016 14.2231 17.2899 14.2529L15.8536 17.8347C15.8447 17.8591 15.8411 17.8851 15.843 17.9109C15.845 17.9368 15.8525 17.962 15.865 17.9847C15.878 18.0067 15.8958 18.0254 15.917 18.0396C15.9382 18.0537 15.9624 18.063 15.9877 18.0665L19.8104 18.6188C19.8178 18.6207 19.8255 18.6214 19.8331 18.6211C19.8613 18.621 19.889 18.6142 19.9139 18.6011C19.9388 18.5881 19.9602 18.5692 19.9763 18.5461C19.9942 18.5198 20.0042 18.4888 20.005 18.457C20.0058 18.4251 19.9974 18.3937 19.9809 18.3665L19.574 17.6597C20.8819 16.7816 21.8071 15.439 22.162 13.9042C22.5169 12.3693 22.275 10.757 21.4854 9.3938ZM11.4084 5.87426C10.3993 5.87426 9.41294 6.17344 8.57392 6.73399C7.73491 7.29453 7.08094 8.09126 6.69469 9.02345C6.30845 9.95564 6.20727 10.9814 6.40396 11.9711C6.60065 12.9608 7.08637 13.8699 7.7997 14.5836C8.51304 15.2972 9.42197 15.7834 10.4116 15.9805C11.4012 16.1776 12.427 16.0769 13.3593 15.6911C14.2917 15.3052 15.0887 14.6516 15.6496 13.8129C16.2106 12.9741 16.5102 11.9878 16.5106 10.9788C16.5098 9.62565 15.972 8.32812 15.0154 7.37108C14.0588 6.41404 12.7615 5.8757 11.4084 5.87426ZM13.5424 10.3265L11.4379 14.1697C11.4202 14.2034 11.3938 14.2318 11.3614 14.2518C11.3291 14.2718 11.2919 14.2827 11.2538 14.2833C11.2304 14.2835 11.2072 14.2788 11.1856 14.2695C11.138 14.2552 11.0971 14.2241 11.0708 14.1819C11.0444 14.1396 11.0343 14.0893 11.0424 14.0402L11.372 11.6129L9.47881 11.7402C9.44116 11.7419 9.40369 11.7341 9.3699 11.7174C9.33611 11.7007 9.30711 11.6757 9.28563 11.6447C9.26487 11.6131 9.25292 11.5766 9.251 11.5388C9.24909 11.5011 9.25727 11.4635 9.27472 11.4299L11.2361 7.61653C11.2586 7.57173 11.2965 7.53651 11.3428 7.51732C11.3891 7.49813 11.4408 7.49623 11.4884 7.51199C11.5368 7.52753 11.5781 7.5599 11.6048 7.60326C11.6315 7.64661 11.6418 7.69807 11.6338 7.74835L11.2356 10.2481L13.3334 10.0163C13.372 10.012 13.4111 10.0185 13.4464 10.0349C13.4817 10.0513 13.5117 10.0771 13.5334 10.1095C13.5546 10.1414 13.5666 10.1785 13.5682 10.2167C13.5698 10.255 13.5609 10.293 13.5424 10.3265Z" fill="black"/>
<path d="M9.1445 20.537C7.93472 20.2444 6.84908 19.5753 6.04403 18.626C5.23898 17.6768 4.75609 16.4965 4.66495 15.2552H5.4445C5.47652 15.2549 5.50783 15.2456 5.53489 15.2285C5.56195 15.2114 5.58368 15.187 5.59762 15.1582C5.61157 15.1293 5.61717 15.0972 5.61381 15.0653C5.61045 15.0335 5.59825 15.0032 5.57859 14.9779L3.1945 11.9461C3.17841 11.9259 3.15804 11.9095 3.13485 11.8981C3.11166 11.8867 3.08624 11.8806 3.06041 11.8802C3.03453 11.8803 3.00902 11.8863 2.9858 11.8977C2.96257 11.9092 2.94224 11.9257 2.92631 11.9461L0.537678 14.9779C0.517388 15.0031 0.504693 15.0336 0.501071 15.0658C0.49745 15.098 0.503052 15.1306 0.517223 15.1597C0.531602 15.1879 0.553356 15.2117 0.58017 15.2285C0.606985 15.2453 0.637855 15.2545 0.669496 15.2552H1.4854C1.59186 16.8271 2.29222 18.2997 3.44443 19.3742C4.59664 20.4488 6.11444 21.0448 7.68995 21.0415C8.18075 21.043 8.66993 20.985 9.14677 20.8688C9.18402 20.86 9.21715 20.8388 9.24071 20.8086C9.26426 20.7785 9.27682 20.7412 9.27631 20.7029C9.27633 20.6644 9.26331 20.6271 9.23937 20.5969C9.21543 20.5668 9.18199 20.5457 9.1445 20.537ZM3.99904 4.81426C4.02457 4.82913 4.05359 4.83697 4.08313 4.83698C4.13007 4.83677 4.17502 4.81798 4.20813 4.78471C5.06675 3.88303 6.18935 3.27706 7.4143 3.05402C8.63926 2.83099 9.90339 3.0024 11.0247 3.54358L10.6338 4.22085C10.6181 4.24844 10.6104 4.27987 10.6116 4.31159C10.6129 4.34331 10.6229 4.37407 10.6406 4.40039C10.6582 4.42738 10.6832 4.44864 10.7127 4.46156C10.7422 4.47448 10.7748 4.4785 10.8065 4.47312L14.6247 3.92539C14.6506 3.92171 14.6752 3.91224 14.6969 3.89767C14.7185 3.88311 14.7366 3.86384 14.7497 3.8413C14.7623 3.81898 14.7697 3.79408 14.7713 3.76849C14.7729 3.74289 14.7686 3.71728 14.7588 3.69358L13.327 0.107213C13.3147 0.0778739 13.2947 0.0524279 13.2691 0.0336082C13.2435 0.0147885 13.2132 0.00330601 13.1815 0.000394317C13.1496 -0.00179484 13.1176 0.00516386 13.0894 0.0204572C13.0613 0.0357506 13.038 0.0587469 13.0224 0.086758L12.6134 0.793576C11.8009 0.397247 10.9118 0.182727 10.008 0.164946C9.10421 0.147165 8.20739 0.326551 7.37997 0.690618C6.55254 1.05468 5.81439 1.59469 5.21689 2.27304C4.61938 2.9514 4.17688 3.75181 3.92018 4.61858C3.90989 4.65532 3.91205 4.69444 3.92632 4.72983C3.94058 4.76523 3.96615 4.79491 3.99904 4.81426ZM21.4854 9.3938C21.2404 8.96828 20.9451 8.57378 20.6059 8.2188C20.5795 8.19116 20.5446 8.1732 20.5068 8.1678C20.469 8.16239 20.4304 8.16987 20.3974 8.18902C20.3643 8.20817 20.3387 8.23788 20.3245 8.27338C20.3104 8.30887 20.3086 8.34809 20.3195 8.38471C20.6709 9.57904 20.6342 10.8541 20.2147 12.0262C19.7953 13.1984 19.0147 14.2072 17.9854 14.9074L17.5945 14.2324C17.579 14.2044 17.5558 14.1815 17.5277 14.1661C17.4996 14.1508 17.4677 14.1438 17.4357 14.146C17.4038 14.1481 17.3731 14.1593 17.3473 14.1783C17.3215 14.1972 17.3016 14.2231 17.2899 14.2529L15.8536 17.8347C15.8447 17.8591 15.8411 17.8851 15.843 17.9109C15.845 17.9368 15.8525 17.962 15.865 17.9847C15.878 18.0067 15.8958 18.0254 15.917 18.0396C15.9382 18.0537 15.9624 18.063 15.9877 18.0665L19.8104 18.6188C19.8178 18.6207 19.8255 18.6214 19.8331 18.6211C19.8613 18.621 19.889 18.6142 19.9139 18.6011C19.9388 18.5881 19.9602 18.5692 19.9763 18.5461C19.9942 18.5198 20.0042 18.4888 20.005 18.457C20.0058 18.4251 19.9974 18.3937 19.9809 18.3665L19.574 17.6597C20.8819 16.7816 21.8071 15.439 22.162 13.9042C22.5169 12.3693 22.275 10.757 21.4854 9.3938ZM11.4084 5.87426C10.3993 5.87426 9.41294 6.17344 8.57392 6.73399C7.73491 7.29453 7.08094 8.09126 6.69469 9.02345C6.30845 9.95564 6.20727 10.9814 6.40396 11.9711C6.60065 12.9608 7.08637 13.8699 7.7997 14.5836C8.51304 15.2972 9.42197 15.7834 10.4116 15.9805C11.4012 16.1776 12.427 16.0769 13.3593 15.6911C14.2917 15.3052 15.0887 14.6516 15.6496 13.8129C16.2106 12.9741 16.5102 11.9878 16.5106 10.9788C16.5098 9.62565 15.972 8.32812 15.0154 7.37108C14.0588 6.41404 12.7615 5.8757 11.4084 5.87426ZM13.5424 10.3265L11.4379 14.1697C11.4202 14.2034 11.3938 14.2318 11.3614 14.2518C11.3291 14.2718 11.2919 14.2827 11.2538 14.2833C11.2304 14.2835 11.2072 14.2788 11.1856 14.2695C11.138 14.2552 11.0971 14.2241 11.0708 14.1819C11.0444 14.1396 11.0343 14.0893 11.0424 14.0402L11.372 11.6129L9.47881 11.7402C9.44116 11.7419 9.40369 11.7341 9.3699 11.7174C9.33611 11.7007 9.30711 11.6757 9.28563 11.6447C9.26487 11.6131 9.25292 11.5766 9.251 11.5388C9.24909 11.5011 9.25727 11.4635 9.27472 11.4299L11.2361 7.61653C11.2586 7.57173 11.2965 7.53651 11.3428 7.51732C11.3891 7.49813 11.4408 7.49623 11.4884 7.51199C11.5368 7.52753 11.5781 7.5599 11.6048 7.60326C11.6315 7.64661 11.6418 7.69807 11.6338 7.74835L11.2356 10.2481L13.3334 10.0163C13.372 10.012 13.4111 10.0185 13.4464 10.0349C13.4817 10.0513 13.5117 10.0771 13.5334 10.1095C13.5546 10.1414 13.5666 10.1785 13.5682 10.2167C13.5698 10.255 13.5609 10.293 13.5424 10.3265Z" fill="black"/>
<path d="M9.1445 20.537C7.93472 20.2444 6.84908 19.5753 6.04403 18.626C5.23898 17.6768 4.75609 16.4965 4.66495 15.2552H5.4445C5.47652 15.2549 5.50783 15.2456 5.53489 15.2285C5.56195 15.2114 5.58368 15.187 5.59762 15.1582C5.61157 15.1293 5.61717 15.0972 5.61381 15.0653C5.61045 15.0335 5.59825 15.0032 5.57859 14.9779L3.1945 11.9461C3.17841 11.9259 3.15804 11.9095 3.13485 11.8981C3.11166 11.8867 3.08624 11.8806 3.06041 11.8802C3.03453 11.8803 3.00902 11.8863 2.9858 11.8977C2.96257 11.9092 2.94224 11.9257 2.92631 11.9461L0.537678 14.9779C0.517388 15.0031 0.504693 15.0336 0.501071 15.0658C0.49745 15.098 0.503052 15.1306 0.517223 15.1597C0.531602 15.1879 0.553356 15.2117 0.58017 15.2285C0.606985 15.2453 0.637855 15.2545 0.669496 15.2552H1.4854C1.59186 16.8271 2.29222 18.2997 3.44443 19.3742C4.59664 20.4488 6.11444 21.0448 7.68995 21.0415C8.18075 21.043 8.66993 20.985 9.14677 20.8688C9.18402 20.86 9.21715 20.8388 9.24071 20.8086C9.26426 20.7785 9.27682 20.7412 9.27631 20.7029C9.27633 20.6644 9.26331 20.6271 9.23937 20.5969C9.21543 20.5668 9.18199 20.5457 9.1445 20.537ZM3.99904 4.81426C4.02457 4.82913 4.05359 4.83697 4.08313 4.83698C4.13007 4.83677 4.17502 4.81798 4.20813 4.78471C5.06675 3.88303 6.18935 3.27706 7.4143 3.05402C8.63926 2.83099 9.90339 3.0024 11.0247 3.54358L10.6338 4.22085C10.6181 4.24844 10.6104 4.27987 10.6116 4.31159C10.6129 4.34331 10.6229 4.37407 10.6406 4.40039C10.6582 4.42738 10.6832 4.44864 10.7127 4.46156C10.7422 4.47448 10.7748 4.4785 10.8065 4.47312L14.6247 3.92539C14.6506 3.92171 14.6752 3.91224 14.6969 3.89767C14.7185 3.88311 14.7366 3.86384 14.7497 3.8413C14.7623 3.81898 14.7697 3.79408 14.7713 3.76849C14.7729 3.74289 14.7686 3.71728 14.7588 3.69358L13.327 0.107213C13.3147 0.0778739 13.2947 0.0524279 13.2691 0.0336082C13.2435 0.0147885 13.2132 0.00330601 13.1815 0.000394317C13.1496 -0.00179484 13.1176 0.00516386 13.0894 0.0204572C13.0613 0.0357506 13.038 0.0587469 13.0224 0.086758L12.6134 0.793576C11.8009 0.397247 10.9118 0.182727 10.008 0.164946C9.10421 0.147165 8.20739 0.326551 7.37997 0.690618C6.55254 1.05468 5.81439 1.59469 5.21689 2.27304C4.61938 2.9514 4.17688 3.75181 3.92018 4.61858C3.90989 4.65532 3.91205 4.69444 3.92632 4.72983C3.94058 4.76523 3.96615 4.79491 3.99904 4.81426ZM21.4854 9.3938C21.2404 8.96828 20.9451 8.57378 20.6059 8.2188C20.5795 8.19116 20.5446 8.1732 20.5068 8.1678C20.469 8.16239 20.4304 8.16987 20.3974 8.18902C20.3643 8.20817 20.3387 8.23788 20.3245 8.27338C20.3104 8.30887 20.3086 8.34809 20.3195 8.38471C20.6709 9.57904 20.6342 10.8541 20.2147 12.0262C19.7953 13.1984 19.0147 14.2072 17.9854 14.9074L17.5945 14.2324C17.579 14.2044 17.5558 14.1815 17.5277 14.1661C17.4996 14.1508 17.4677 14.1438 17.4357 14.146C17.4038 14.1481 17.3731 14.1593 17.3473 14.1783C17.3215 14.1972 17.3016 14.2231 17.2899 14.2529L15.8536 17.8347C15.8447 17.8591 15.8411 17.8851 15.843 17.9109C15.845 17.9368 15.8525 17.962 15.865 17.9847C15.878 18.0067 15.8958 18.0254 15.917 18.0396C15.9382 18.0537 15.9624 18.063 15.9877 18.0665L19.8104 18.6188C19.8178 18.6207 19.8255 18.6214 19.8331 18.6211C19.8613 18.621 19.889 18.6142 19.9139 18.6011C19.9388 18.5881 19.9602 18.5692 19.9763 18.5461C19.9942 18.5198 20.0042 18.4888 20.005 18.457C20.0058 18.4251 19.9974 18.3937 19.9809 18.3665L19.574 17.6597C20.8819 16.7816 21.8071 15.439 22.162 13.9042C22.5169 12.3693 22.275 10.757 21.4854 9.3938ZM11.4084 5.87426C10.3993 5.87426 9.41294 6.17344 8.57392 6.73399C7.73491 7.29453 7.08094 8.09126 6.69469 9.02345C6.30845 9.95564 6.20727 10.9814 6.40396 11.9711C6.60065 12.9608 7.08637 13.8699 7.7997 14.5836C8.51304 15.2972 9.42197 15.7834 10.4116 15.9805C11.4012 16.1776 12.427 16.0769 13.3593 15.6911C14.2917 15.3052 15.0887 14.6516 15.6496 13.8129C16.2106 12.9741 16.5102 11.9878 16.5106 10.9788C16.5098 9.62565 15.972 8.32812 15.0154 7.37108C14.0588 6.41404 12.7615 5.8757 11.4084 5.87426ZM13.5424 10.3265L11.4379 14.1697C11.4202 14.2034 11.3938 14.2318 11.3614 14.2518C11.3291 14.2718 11.2919 14.2827 11.2538 14.2833C11.2304 14.2835 11.2072 14.2788 11.1856 14.2695C11.138 14.2552 11.0971 14.2241 11.0708 14.1819C11.0444 14.1396 11.0343 14.0893 11.0424 14.0402L11.372 11.6129L9.47881 11.7402C9.44116 11.7419 9.40369 11.7341 9.3699 11.7174C9.33611 11.7007 9.30711 11.6757 9.28563 11.6447C9.26487 11.6131 9.25292 11.5766 9.251 11.5388C9.24909 11.5011 9.25727 11.4635 9.27472 11.4299L11.2361 7.61653C11.2586 7.57173 11.2965 7.53651 11.3428 7.51732C11.3891 7.49813 11.4408 7.49623 11.4884 7.51199C11.5368 7.52753 11.5781 7.5599 11.6048 7.60326C11.6315 7.64661 11.6418 7.69807 11.6338 7.74835L11.2356 10.2481L13.3334 10.0163C13.372 10.012 13.4111 10.0185 13.4464 10.0349C13.4817 10.0513 13.5117 10.0771 13.5334 10.1095C13.5546 10.1414 13.5666 10.1785 13.5682 10.2167C13.5698 10.255 13.5609 10.293 13.5424 10.3265Z" fill="white"/>
</svg>
