<svg width="25" height="24" viewBox="0 0 25 24" fill="none" xmlns="http://www.w3.org/2000/svg">
<mask id="mask0_102_1162" style="mask-type:alpha" maskUnits="userSpaceOnUse" x="0" y="0" width="25" height="24">
<rect x="0.5" width="24" height="24" fill="#D9D9D9"/>
</mask>
<g mask="url(#mask0_102_1162)">
<path d="M9.5 14V10H11V14H9.5ZM11.75 14V11H13.25V14H11.75ZM14 14V12H15.5V14H14ZM9.5 22L8.15 17.45C7.35 16.8167 6.70833 16.025 6.225 15.075C5.74167 14.125 5.5 13.1 5.5 12C5.5 10.9 5.74167 9.875 6.225 8.925C6.70833 7.975 7.35 7.18333 8.15 6.55L9.5 2H15.5L16.85 6.55C17.65 7.18333 18.2917 7.975 18.775 8.925C19.2583 9.875 19.5 10.9 19.5 12C19.5 13.1 19.2583 14.125 18.775 15.075C18.2917 16.025 17.65 16.8167 16.85 17.45L15.5 22H9.5ZM12.5 17C13.8833 17 15.0625 16.5125 16.0375 15.5375C17.0125 14.5625 17.5 13.3833 17.5 12C17.5 10.6167 17.0125 9.4375 16.0375 8.4625C15.0625 7.4875 13.8833 7 12.5 7C11.1167 7 9.9375 7.4875 8.9625 8.4625C7.9875 9.4375 7.5 10.6167 7.5 12C7.5 13.3833 7.9875 14.5625 8.9625 15.5375C9.9375 16.5125 11.1167 17 12.5 17ZM10.6 5.25C10.9333 5.16667 11.2542 5.1 11.5625 5.05C11.8708 5 12.1833 4.975 12.5 4.975C12.8167 4.975 13.1292 5 13.4375 5.05C13.7458 5.1 14.0667 5.16667 14.4 5.25L14 4H11L10.6 5.25ZM11 20H14L14.4 18.75C14.0667 18.8333 13.7458 18.8958 13.4375 18.9375C13.1292 18.9792 12.8167 19 12.5 19C12.1833 19 11.8708 18.9792 11.5625 18.9375C11.2542 18.8958 10.9333 18.8333 10.6 18.75L11 20ZM11 20H10.6H14.4H11Z" fill="black"/>
<path d="M9.5 14V10H11V14H9.5ZM11.75 14V11H13.25V14H11.75ZM14 14V12H15.5V14H14ZM9.5 22L8.15 17.45C7.35 16.8167 6.70833 16.025 6.225 15.075C5.74167 14.125 5.5 13.1 5.5 12C5.5 10.9 5.74167 9.875 6.225 8.925C6.70833 7.975 7.35 7.18333 8.15 6.55L9.5 2H15.5L16.85 6.55C17.65 7.18333 18.2917 7.975 18.775 8.925C19.2583 9.875 19.5 10.9 19.5 12C19.5 13.1 19.2583 14.125 18.775 15.075C18.2917 16.025 17.65 16.8167 16.85 17.45L15.5 22H9.5ZM12.5 17C13.8833 17 15.0625 16.5125 16.0375 15.5375C17.0125 14.5625 17.5 13.3833 17.5 12C17.5 10.6167 17.0125 9.4375 16.0375 8.4625C15.0625 7.4875 13.8833 7 12.5 7C11.1167 7 9.9375 7.4875 8.9625 8.4625C7.9875 9.4375 7.5 10.6167 7.5 12C7.5 13.3833 7.9875 14.5625 8.9625 15.5375C9.9375 16.5125 11.1167 17 12.5 17ZM10.6 5.25C10.9333 5.16667 11.2542 5.1 11.5625 5.05C11.8708 5 12.1833 4.975 12.5 4.975C12.8167 4.975 13.1292 5 13.4375 5.05C13.7458 5.1 14.0667 5.16667 14.4 5.25L14 4H11L10.6 5.25ZM11 20H14L14.4 18.75C14.0667 18.8333 13.7458 18.8958 13.4375 18.9375C13.1292 18.9792 12.8167 19 12.5 19C12.1833 19 11.8708 18.9792 11.5625 18.9375C11.2542 18.8958 10.9333 18.8333 10.6 18.75L11 20ZM11 20H10.6H14.4H11Z" fill="black"/>
<path d="M9.5 14V10H11V14H9.5ZM11.75 14V11H13.25V14H11.75ZM14 14V12H15.5V14H14ZM9.5 22L8.15 17.45C7.35 16.8167 6.70833 16.025 6.225 15.075C5.74167 14.125 5.5 13.1 5.5 12C5.5 10.9 5.74167 9.875 6.225 8.925C6.70833 7.975 7.35 7.18333 8.15 6.55L9.5 2H15.5L16.85 6.55C17.65 7.18333 18.2917 7.975 18.775 8.925C19.2583 9.875 19.5 10.9 19.5 12C19.5 13.1 19.2583 14.125 18.775 15.075C18.2917 16.025 17.65 16.8167 16.85 17.45L15.5 22H9.5ZM12.5 17C13.8833 17 15.0625 16.5125 16.0375 15.5375C17.0125 14.5625 17.5 13.3833 17.5 12C17.5 10.6167 17.0125 9.4375 16.0375 8.4625C15.0625 7.4875 13.8833 7 12.5 7C11.1167 7 9.9375 7.4875 8.9625 8.4625C7.9875 9.4375 7.5 10.6167 7.5 12C7.5 13.3833 7.9875 14.5625 8.9625 15.5375C9.9375 16.5125 11.1167 17 12.5 17ZM10.6 5.25C10.9333 5.16667 11.2542 5.1 11.5625 5.05C11.8708 5 12.1833 4.975 12.5 4.975C12.8167 4.975 13.1292 5 13.4375 5.05C13.7458 5.1 14.0667 5.16667 14.4 5.25L14 4H11L10.6 5.25ZM11 20H14L14.4 18.75C14.0667 18.8333 13.7458 18.8958 13.4375 18.9375C13.1292 18.9792 12.8167 19 12.5 19C12.1833 19 11.8708 18.9792 11.5625 18.9375C11.2542 18.8958 10.9333 18.8333 10.6 18.75L11 20ZM11 20H10.6H14.4H11Z" fill="white"/>
</g>
</svg>
