<svg width="53" height="53" viewBox="0 0 53 53" fill="none" xmlns="http://www.w3.org/2000/svg">
<circle cx="27.9579" cy="25.2685" r="24.9355" fill="white"/>
<circle cx="24.9355" cy="27.7875" r="24.3058" stroke="#1A1A1A" stroke-width="1.25937"/>
<rect x="17.5945" y="19.3882" width="3.94067" height="20.6305" rx="1.97033" fill="black"/>
<rect x="23.2738" y="22.8652" width="3.94067" height="17.1535" rx="1.97033" fill="black"/>
<rect x="28.953" y="25.647" width="3.94067" height="14.3718" rx="1.97033" fill="black"/>
<rect x="34.6321" y="28.6602" width="3.94067" height="11.3584" rx="1.97033" fill="black"/>
<path d="M40.3326 23.059C40.6953 22.8552 40.8242 22.3959 40.6204 22.0332C40.4166 21.6704 39.9573 21.5416 39.5946 21.7454L40.3326 23.059ZM19.9126 9.65303L19.7838 18.3512L27.381 14.1136L19.9126 9.65303ZM39.5946 21.7454C36.344 23.5715 33.3414 23.1963 30.6734 21.7434C27.9648 20.2684 25.6151 17.6819 23.8326 15.1426L22.5993 16.0083C24.4402 18.6307 26.9504 21.4316 29.9528 23.0666C32.9958 24.7237 36.5554 25.181 40.3326 23.059L39.5946 21.7454Z" fill="#1A1A1A"/>
</svg>
